<?xml version="1.0" standalone="no"?>
<!DOCTYPE svg PUBLIC "-//W3C//DTD SVG 20010904//EN"
 "http://www.w3.org/TR/2001/REC-SVG-20010904/DTD/svg10.dtd">
<svg version="1.0" xmlns="http://www.w3.org/2000/svg"
 width="612pt" height="300pt" viewBox="0 0 612.000000 249.000000"
 preserveAspectRatio="xMidYMid meet">

<g transform="translate(0.000000,249.000000) scale(0.100000,-0.100000)"
fill="#fff" stroke="none">
<path d="M1496 2034 c-49 -71 -91 -131 -93 -134 -2 -2 -55 47 -118 110 l-115
115 0 -281 0 -281 -189 -274 -188 -274 -49 -6 -49 -5 42 -5 41 -4 -193 -280
c-106 -154 -190 -284 -187 -289 7 -13 19 3 228 306 l185 268 179 0 180 0 2
-287 3 -288 465 0 c297 0 343 1 128 2 -313 3 -338 5 -338 21 0 9 11 130 25
267 14 138 25 258 25 268 0 15 11 17 93 17 l92 0 0 -104 c0 -88 3 -107 19
-125 24 -27 65 -27 119 0 49 25 267 240 267 263 0 28 -15 17 -68 -49 -54 -67
-152 -154 -202 -180 -67 -35 -90 -12 -90 87 0 97 5 108 51 108 l39 0 -2 128
-2 127 -3 -122 -4 -123 -34 0 c-40 0 -40 -16 1 150 13 52 46 167 73 254 48
156 52 186 26 186 -18 0 -32 -20 -40 -57 -3 -18 -9 -33 -13 -33 -3 0 -29 21
-57 47 l-50 48 52 -55 53 -56 -35 -119 c-31 -104 -67 -242 -89 -337 l-6 -28
-95 0 -94 0 4 28 c6 30 65 653 65 678 0 14 2 15 18 3 16 -13 16 -12 1 6 -15
18 -15 35 3 205 10 102 17 196 16 209 -2 20 -20 0 -92 -105z m-106 -146 c0 -4
-47 -76 -105 -159 l-105 -152 0 264 0 264 105 -105 c58 -58 105 -108 105 -112z
m156 33 c-7 -78 -16 -144 -18 -146 -2 -3 -28 20 -57 49 l-53 54 68 100 c38 56
70 97 72 93 1 -4 -4 -72 -12 -150z m-51 -531 c-19 -201 -35 -368 -35 -372 0
-5 -63 -8 -140 -8 l-140 0 0 263 0 262 116 168 117 169 59 -59 58 -59 -35
-364z m-328 -377 c-2 -2 -81 -2 -175 -1 l-170 3 171 249 172 249 3 -248 c1
-136 1 -250 -1 -252z m289 -45 c-3 -18 -15 -136 -26 -263 -12 -126 -23 -240
-26 -252 -4 -22 -8 -23 -114 -23 l-110 0 0 285 0 285 140 0 141 0 -5 -32z"/>
<path d="M2336 1688 c-8 -13 -29 -75 -47 -138 -18 -63 -35 -118 -38 -122 -4
-4 -45 -15 -91 -23 -139 -26 -231 -57 -263 -89 -36 -37 -13 -48 31 -16 15 11
52 28 84 39 63 22 217 55 224 48 2 -2 -11 -60 -30 -129 -68 -247 -84 -440 -42
-487 53 -58 178 17 332 198 98 114 64 105 -48 -14 -96 -100 -181 -165 -220
-165 -56 0 -50 156 16 415 26 99 52 185 59 191 6 6 77 21 156 33 80 12 147 24
150 26 15 15 -22 14 -150 -4 -78 -12 -144 -19 -146 -17 -3 2 12 58 33 124 35
113 38 152 15 152 -6 0 -17 -10 -25 -22z"/>
<path d="M3815 1677 c-7 -17 -28 -82 -45 -143 l-32 -111 -108 -21 c-121 -24
-206 -53 -244 -83 -54 -42 -19 -54 40 -14 20 14 60 32 88 40 63 19 206 48 210
44 2 -2 -7 -40 -20 -84 -72 -244 -98 -471 -61 -528 45 -70 171 -1 329 181 71
81 77 92 53 92 -8 0 -15 -4 -15 -10 0 -5 -44 -54 -97 -107 -99 -100 -176 -152
-207 -140 -56 22 -41 181 45 495 26 93 35 113 53 117 11 3 79 14 150 25 71 11
134 24 140 30 14 14 11 13 -155 -10 -78 -12 -143 -20 -144 -18 -2 2 15 57 36
123 21 66 36 128 33 138 -9 28 -34 20 -49 -16z"/>
<path d="M3322 1587 c-17 -20 -138 -451 -157 -559 -21 -121 -17 -228 9 -257
44 -49 121 -16 246 105 92 89 148 159 136 172 -4 3 -24 -14 -43 -38 -91 -113
-222 -220 -270 -220 -37 0 -46 33 -40 139 6 104 48 280 116 492 23 70 41 138
41 153 0 28 -20 35 -38 13z"/>
<path d="M4160 1150 c-22 -22 -17 -50 9 -50 22 0 41 19 41 41 0 26 -28 31 -50
9z"/>
<path d="M5346 1107 c-23 -24 -65 -86 -94 -140 -29 -53 -58 -100 -64 -103 -16
-10 -2 64 22 122 22 51 20 74 -5 74 -19 0 -48 -62 -71 -150 -19 -76 -13 -110
21 -110 29 0 51 29 121 153 60 108 92 146 105 126 5 -8 9 -40 9 -71 0 -138 49
-149 143 -33 26 33 55 60 64 60 10 0 21 -16 30 -40 24 -71 65 -82 149 -40 57
28 122 80 113 90 -4 3 -33 -12 -65 -35 -46 -32 -66 -40 -93 -38 -32 3 -37 7
-56 58 -17 45 -26 56 -46 58 -25 3 -45 -14 -131 -117 -15 -18 -31 -30 -36 -27
-5 3 -12 44 -16 92 -9 128 -32 143 -100 71z"/>
<path d="M4758 1103 c-8 -10 -32 -51 -53 -91 -40 -76 -83 -122 -116 -122 -25
0 -26 47 -3 114 13 39 14 50 4 56 -34 21 -60 -25 -67 -116 -5 -58 -4 -63 20
-78 22 -15 29 -15 59 -3 41 17 90 72 123 137 14 28 27 50 29 50 2 0 0 -19 -6
-42 -30 -137 48 -185 176 -108 64 39 184 145 174 155 -4 4 -44 -23 -89 -61
-101 -81 -159 -110 -190 -94 -22 12 -22 17 -7 185 2 24 -1 31 -18 33 -11 2
-27 -5 -36 -15z"/>
<path d="M2685 1086 c-66 -29 -119 -131 -96 -183 6 -13 16 -23 22 -23 27 0 82
36 124 82 26 27 49 47 52 44 3 -3 9 -26 14 -52 5 -26 16 -56 26 -66 22 -25 76
-23 129 4 56 28 174 125 174 144 0 22 -12 16 -55 -27 -83 -84 -191 -124 -215
-80 -5 11 -13 50 -17 88 -7 63 -10 68 -33 69 -14 1 -41 4 -60 8 -21 3 -47 0
-65 -8z m90 -27 c8 -11 -105 -129 -123 -129 -19 0 -14 42 8 78 27 45 100 77
115 51z"/>
<path d="M4121 1043 c-5 -10 -15 -46 -21 -80 -27 -138 42 -171 177 -84 71 46
191 156 181 166 -4 4 -35 -17 -70 -47 -127 -110 -191 -144 -223 -118 -19 16
-18 73 0 125 8 22 15 43 15 48 0 15 -50 6 -59 -10z"/>
<path d="M2907 649 c-22 -13 -12 -36 19 -43 31 -8 31 -23 -1 -29 -24 -4 -24
-4 2 -3 38 2 39 22 2 41 -23 12 -28 19 -19 25 7 5 19 6 27 3 7 -3 13 -3 13 0
0 11 -27 14 -43 6z"/>
<path d="M4133 653 c-21 -8 -15 -33 12 -45 33 -15 32 -28 -2 -29 -26 -2 -26
-2 -4 -6 34 -7 51 14 27 32 -10 8 -24 16 -30 18 -7 3 -7 9 3 20 14 18 14 19
-6 10z"/>
<path d="M5851 651 c-16 -10 -8 -41 11 -41 10 0 10 2 -1 9 -20 13 -3 33 22 26
17 -5 19 -4 7 4 -18 13 -21 13 -39 2z"/>
<path d="M1671 608 c1 -24 4 -33 6 -20 5 28 19 28 33 1 7 -11 14 -18 17 -15 3
3 0 12 -7 21 -8 10 -9 15 -1 15 6 0 11 9 11 20 0 16 -7 20 -30 20 -29 0 -30
-2 -29 -42z m49 22 c0 -5 -9 -10 -20 -10 -11 0 -20 5 -20 10 0 6 9 10 20 10
11 0 20 -4 20 -10z"/>
<path d="M1880 610 c0 -37 2 -40 28 -39 23 2 24 2 5 6 -27 5 -31 30 -5 36 16
4 16 5 0 6 -26 2 -22 19 5 24 19 4 18 4 -5 6 -26 1 -28 -2 -28 -39z"/>
<path d="M2116 616 c-27 -35 -36 -60 -14 -38 16 16 45 15 51 0 3 -7 6 6 6 30
1 23 -3 42 -8 42 -5 0 -20 -15 -35 -34z m34 -1 c0 -8 -7 -15 -16 -15 -14 0
-14 3 -4 15 7 8 14 15 16 15 2 0 4 -7 4 -15z"/>
<path d="M2314 608 c1 -36 4 -43 21 -44 14 -1 15 0 3 3 -11 3 -18 17 -21 44
l-4 39 1 -42z"/>
<path d="M2692 608 c2 -35 7 -43 23 -44 15 -1 16 0 3 3 -10 3 -18 13 -18 23 0
10 8 21 18 23 16 4 16 5 0 6 -26 2 -22 19 5 24 18 4 18 4 -6 6 -27 1 -28 -1
-25 -41z"/>
<path d="M3117 642 c6 -4 13 -23 16 -42 l4 -35 1 37 c2 25 7 38 20 41 9 3 1 5
-18 6 -19 0 -30 -3 -23 -7z"/>
<path d="M3334 623 c-11 -16 -24 -35 -29 -43 -6 -12 -5 -13 6 -2 7 6 21 12 30
12 10 0 20 -6 22 -12 3 -7 6 6 6 30 1 49 -7 53 -35 15z m26 -8 c0 -8 -7 -15
-16 -15 -14 0 -14 3 -4 15 7 8 14 15 16 15 2 0 4 -7 4 -15z"/>
<path d="M3533 643 c12 -3 17 -16 19 -41 l1 -37 4 35 c3 19 10 38 16 42 7 4
-4 7 -23 7 -19 -1 -27 -3 -17 -6z"/>
<path d="M3740 610 c0 -35 3 -40 23 -39 16 1 18 2 5 6 -21 5 -24 29 -5 36 10
4 10 6 0 6 -19 1 -16 19 5 24 13 4 11 5 -5 6 -20 1 -23 -4 -23 -39z"/>
<path d="M4342 638 c-30 -30 -3 -72 44 -66 34 4 53 31 38 56 -13 21 -64 28
-82 10z m73 -28 c0 -21 -5 -26 -33 -28 -22 -2 -34 2 -38 12 -12 30 4 47 38 44
28 -2 33 -7 33 -28z"/>
<path d="M4582 613 c-2 -41 -1 -43 26 -42 22 1 23 2 5 6 -17 3 -23 13 -26 41
l-4 37 -1 -42z"/>
<path d="M4771 625 c-1 -40 11 -57 40 -53 21 3 24 9 25 43 l1 40 -4 -38 c-4
-33 -8 -38 -26 -35 -16 2 -24 12 -28 38 -6 34 -6 34 -8 5z"/>
<path d="M5007 642 c6 -4 13 -23 16 -42 l4 -35 1 37 c2 25 7 38 20 41 9 3 1 5
-18 6 -19 0 -30 -3 -23 -7z"/>
<path d="M5213 610 c0 -25 2 -35 4 -22 2 12 2 32 0 45 -2 12 -4 2 -4 -23z"/>
<path d="M5382 638 c-30 -30 -3 -72 44 -66 34 4 53 31 38 56 -13 21 -64 28
-82 10z m73 -28 c0 -21 -5 -26 -33 -28 -22 -2 -34 2 -38 12 -12 30 4 47 38 44
28 -2 33 -7 33 -28z"/>
<path d="M5622 610 c1 -44 1 -44 7 -10 l6 35 20 -32 c26 -44 35 -41 33 10 -1
38 -2 39 -5 8 l-4 -34 -29 34 -29 34 1 -45z"/>
<path d="M5886 596 c4 -10 -3 -16 -23 -19 -27 -4 -27 -4 5 -6 31 -1 45 20 22
34 -5 3 -7 0 -4 -9z"/>
</g>
</svg>
